<?xml version="1.0" encoding="UTF-8" standalone="no"?>
<!-- Created with Inkscape (http://www.inkscape.org/) -->

<svg
   xmlns:dc="http://purl.org/dc/elements/1.1/"
   xmlns:cc="http://creativecommons.org/ns#"
   xmlns:rdf="http://www.w3.org/1999/02/22-rdf-syntax-ns#"
   xmlns:svg="http://www.w3.org/2000/svg"
   xmlns="http://www.w3.org/2000/svg"
   xmlns:sodipodi="http://sodipodi.sourceforge.net/DTD/sodipodi-0.dtd"
   xmlns:inkscape="http://www.inkscape.org/namespaces/inkscape"
   width="300"
   height="200"
   viewBox="0 0 79.374998 52.916668"
   version="1.1"
   id="svg8"
   inkscape:version="0.92.4 (5da689c313, 2019-01-14)"
   sodipodi:docname="404.svg"
   inkscape:export-filename="/home/nur/Public/Project/React/wera/src/404.svg.png"
   inkscape:export-xdpi="96"
   inkscape:export-ydpi="96">
  <defs
     id="defs2" />
  <sodipodi:namedview
     id="base"
     pagecolor="#ffffff"
     bordercolor="#666666"
     borderopacity="1.0"
     inkscape:pageopacity="0.0"
     inkscape:pageshadow="2"
     inkscape:zoom="0.98994949"
     inkscape:cx="336.55157"
     inkscape:cy="3.4678605"
     inkscape:document-units="px"
     inkscape:current-layer="layer1"
     showgrid="false"
     inkscape:pagecheckerboard="true"
     inkscape:window-width="1362"
     inkscape:window-height="725"
     inkscape:window-x="0"
     inkscape:window-y="20"
     inkscape:window-maximized="0"
     units="px" />
  <metadata
     id="metadata5">
    <rdf:RDF>
      <cc:Work
         rdf:about="">
        <dc:format>image/svg+xml</dc:format>
        <dc:type
           rdf:resource="http://purl.org/dc/dcmitype/StillImage" />
        <dc:title></dc:title>
      </cc:Work>
    </rdf:RDF>
  </metadata>
  <g
     inkscape:label="Layer 1"
     inkscape:groupmode="layer"
     id="layer1"
     transform="translate(0,-244.08332)">
    <g
       id="g1648">
      <path
         id="path1270"
         transform="matrix(0.26458333,0,0,0.26458333,0,244.08332)"
         d="M 47.984375 44.552734 A 45.970687 45.970687 0 0 0 13.464844 122.98438 L 45.970703 155.49219 L 78.476562 122.98438 A 45.970687 45.970687 0 0 0 47.984375 44.552734 z M 65.941406 77.943359 A 8.5564491 8.5564491 0 0 1 74.498047 86.5 A 8.5564491 8.5564491 0 0 1 65.941406 95.056641 A 8.5564491 8.5564491 0 0 1 57.384766 86.5 A 8.5564491 8.5564491 0 0 1 65.941406 77.943359 z M 24.607422 78.513672 A 8.4555607 8.4555607 0 0 1 33.0625 86.96875 A 8.4555607 8.4555607 0 0 1 24.607422 95.425781 A 8.4555607 8.4555607 0 0 1 16.150391 86.96875 A 8.4555607 8.4555607 0 0 1 24.607422 78.513672 z M 47.078125 110.17969 C 53.986084 110.30789 60.287588 113.68462 66.302734 118.60156 L 66.302734 129.29688 C 54.413388 116.54944 41.70181 112.84743 27.158203 129.29688 L 27.158203 118.60156 C 34.415378 112.48257 40.982867 110.06657 47.078125 110.17969 z "
         style="fill:#ffffff;fill-opacity:1;stroke:none;stroke-width:5.10785389" />
      <g
         transform="matrix(0.28339459,0,0,0.28339459,59.30706,262.98073)"
         aria-label="NO LOCATION FOUND."
         style="font-style:normal;font-weight:normal;font-size:21.9349823px;line-height:1.25;font-family:sans-serif;letter-spacing:0px;word-spacing:0px;fill:#ffffff;fill-opacity:1;stroke:none;stroke-width:0.54837453"
         id="text1366">
        <path
           d="m -111.42543,64.806424 v 15.594402 h -3.14887 l -4.60549,-10.228471 v 10.228471 h -3.15958 V 64.806424 h 3.15958 l 4.60549,10.239181 V 64.806424 Z"
           style="font-style:normal;font-variant:normal;font-weight:bold;font-stretch:normal;font-family:'Roboto Condensed';-inkscape-font-specification:'Roboto Condensed, Bold';fill:#ffffff;fill-opacity:1;stroke:none;stroke-width:0.54837453"
           id="path1475"
           inkscape:connector-curvature="0" />
        <path
           d="m -97.908855,73.995982 q 0,3.298816 -1.542303,4.958934 -1.542302,1.660118 -4.059262,1.660118 -2.50624,0 -4.06996,-1.660118 -1.56373,-1.660118 -1.56373,-4.958934 v -2.591927 q 0,-3.373788 1.55302,-5.087459 1.55301,-1.724381 4.05925,-1.724381 2.51696,0 4.069972,1.724381 1.553013,1.713671 1.553013,5.087459 z m -3.148865,-2.613347 q 0,-2.227772 -0.63192,-3.191712 -0.63192,-0.963939 -1.8422,-0.963939 -1.19957,0 -1.83148,0.953229 -0.62121,0.942519 -0.63192,3.116738 v 2.699031 q 0,2.120667 0.63192,3.063186 0.64263,0.931808 1.8529,0.931808 1.19957,0 1.82078,-0.921098 0.62121,-0.921097 0.63192,-2.998923 z"
           style="font-style:normal;font-variant:normal;font-weight:bold;font-stretch:normal;font-family:'Roboto Condensed';-inkscape-font-specification:'Roboto Condensed, Bold';fill:#ffffff;fill-opacity:1;stroke:none;stroke-width:0.54837453"
           id="path1477"
           inkscape:connector-curvature="0" />
        <path
           d="m -81.918166,77.787478 v 2.613348 h -8.675457 V 64.806424 h 3.15958 v 12.981054 z"
           style="font-style:normal;font-variant:normal;font-weight:bold;font-stretch:normal;font-family:'Roboto Condensed';-inkscape-font-specification:'Roboto Condensed, Bold';fill:#ffffff;fill-opacity:1;stroke:none;stroke-width:0.54837453"
           id="path1479"
           inkscape:connector-curvature="0" />
        <path
           d="m -69.804657,73.995982 q 0,3.298816 -1.542304,4.958934 -1.542303,1.660118 -4.059257,1.660118 -2.506243,0 -4.069967,-1.660118 -1.563724,-1.660118 -1.563724,-4.958934 v -2.591927 q 0,-3.373788 1.553014,-5.087459 1.553014,-1.724381 4.059257,-1.724381 2.516953,0 4.069967,1.724381 1.553014,1.713671 1.553014,5.087459 z m -3.14887,-2.613347 q 0,-2.227772 -0.631916,-3.191712 -0.631916,-0.963939 -1.842195,-0.963939 -1.19957,0 -1.831486,0.953229 -0.621205,0.942519 -0.631916,3.116738 v 2.699031 q 0,2.120667 0.631916,3.063186 0.642627,0.931808 1.852906,0.931808 1.19957,0 1.820775,-0.921098 0.621206,-0.921097 0.631916,-2.998923 z"
           style="font-style:normal;font-variant:normal;font-weight:bold;font-stretch:normal;font-family:'Roboto Condensed';-inkscape-font-specification:'Roboto Condensed, Bold';fill:#ffffff;fill-opacity:1;stroke:none;stroke-width:0.54837453"
           id="path1481"
           inkscape:connector-curvature="0" />
        <path
           d="m -60.122421,75.195551 h 3.148869 q -0.107104,2.65619 -1.499462,4.037836 -1.392357,1.381647 -3.8986,1.381647 -2.570506,0 -3.994994,-1.681539 -1.424489,-1.681539 -1.45662,-4.851829 v -2.795425 q 0,-3.266685 1.46733,-4.980355 1.478041,-1.724381 4.027126,-1.724381 2.549085,0 3.877179,1.435199 1.328095,1.424488 1.499462,4.080678 h -3.14887 q -0.05355,-1.670829 -0.524811,-2.281324 -0.471259,-0.621206 -1.70296,-0.621206 -1.21028,0 -1.767223,0.867546 -0.556943,0.867546 -0.578364,3.031055 v 2.838266 q 0,2.206351 0.48197,3.138159 0.48197,0.931809 1.820775,0.931809 1.167438,0 1.681539,-0.556943 0.514101,-0.556943 0.567654,-2.249193 z"
           style="font-style:normal;font-variant:normal;font-weight:bold;font-stretch:normal;font-family:'Roboto Condensed';-inkscape-font-specification:'Roboto Condensed, Bold';fill:#ffffff;fill-opacity:1;stroke:none;stroke-width:0.54837453"
           id="path1483"
           inkscape:connector-curvature="0" />
        <path
           d="m -56.052456,80.400826 4.87325,-15.594402 h 2.881109 l 4.905382,15.594402 h -3.352368 l -0.835415,-3.191712 h -4.294886 l -0.835415,3.191712 z m 4.86254,-5.81577 h 2.92395 l -1.46733,-5.569429 z"
           style="font-style:normal;font-variant:normal;font-weight:bold;font-stretch:normal;font-family:'Roboto Condensed';-inkscape-font-specification:'Roboto Condensed, Bold';fill:#ffffff;fill-opacity:1;stroke:none;stroke-width:0.54837453"
           id="path1485"
           inkscape:connector-curvature="0" />
        <path
           d="m -43.90681,67.430482 v -2.624058 h 10.806835 v 2.624058 h -3.866469 v 12.970344 h -3.14887 V 67.430482 Z"
           style="font-style:normal;font-variant:normal;font-weight:bold;font-stretch:normal;font-family:'Roboto Condensed';-inkscape-font-specification:'Roboto Condensed, Bold';fill:#ffffff;fill-opacity:1;stroke:none;stroke-width:0.54837453"
           id="path1487"
           inkscape:connector-curvature="0" />
        <path
           d="m -28.012522,64.806424 v 15.594402 h -3.14887 V 64.806424 Z"
           style="font-style:normal;font-variant:normal;font-weight:bold;font-stretch:normal;font-family:'Roboto Condensed';-inkscape-font-specification:'Roboto Condensed, Bold';fill:#ffffff;fill-opacity:1;stroke:none;stroke-width:0.54837453"
           id="path1489"
           inkscape:connector-curvature="0" />
        <path
           d="m -14.367416,73.995982 q 0,3.298816 -1.542304,4.958934 -1.542303,1.660118 -4.059257,1.660118 -2.506243,0 -4.069967,-1.660118 -1.563725,-1.660118 -1.563725,-4.958934 v -2.591927 q 0,-3.373788 1.553014,-5.087459 1.553014,-1.724381 4.059257,-1.724381 2.516954,0 4.069968,1.724381 1.553014,1.713671 1.553014,5.087459 z m -3.14887,-2.613347 q 0,-2.227772 -0.631916,-3.191712 -0.631916,-0.963939 -1.842196,-0.963939 -1.199569,0 -1.831485,0.953229 -0.621206,0.942519 -0.631916,3.116738 v 2.699031 q 0,2.120667 0.631916,3.063186 0.642626,0.931808 1.852906,0.931808 1.199569,0 1.820775,-0.921098 0.621206,-0.921097 0.631916,-2.998923 z"
           style="font-style:normal;font-variant:normal;font-weight:bold;font-stretch:normal;font-family:'Roboto Condensed';-inkscape-font-specification:'Roboto Condensed, Bold';fill:#ffffff;fill-opacity:1;stroke:none;stroke-width:0.54837453"
           id="path1491"
           inkscape:connector-curvature="0" />
        <path
           d="M -1.1935734,64.806424 V 80.400826 H -4.3424429 L -8.9479323,70.172355 V 80.400826 H -12.107512 V 64.806424 h 3.1595797 l 4.6054894,10.239181 V 64.806424 Z"
           style="font-style:normal;font-variant:normal;font-weight:bold;font-stretch:normal;font-family:'Roboto Condensed';-inkscape-font-specification:'Roboto Condensed, Bold';fill:#ffffff;fill-opacity:1;stroke:none;stroke-width:0.54837453"
           id="path1493"
           inkscape:connector-curvature="0" />
        <path
           d="M 6.4001324,80.400826 V 64.806424 h 8.6326146 v 2.624058 H 9.5597123 v 3.994994 h 4.8839607 v 2.613348 H 9.5597123 v 6.362002 z"
           style="font-style:normal;font-variant:normal;font-weight:bold;font-stretch:normal;font-family:'Roboto Condensed';-inkscape-font-specification:'Roboto Condensed, Bold';fill:#ffffff;fill-opacity:1;stroke:none;stroke-width:0.54837453"
           id="path1495"
           inkscape:connector-curvature="0" />
        <path
           d="m 27.831718,73.995982 q 0,3.298816 -1.542303,4.958934 -1.542304,1.660118 -4.059257,1.660118 -2.506243,0 -4.069967,-1.660118 -1.563725,-1.660118 -1.563725,-4.958934 v -2.591927 q 0,-3.373788 1.553014,-5.087459 1.553014,-1.724381 4.059257,-1.724381 2.516954,0 4.069967,1.724381 1.553014,1.713671 1.553014,5.087459 z m -3.148869,-2.613347 q 0,-2.227772 -0.631916,-3.191712 -0.631916,-0.963939 -1.842196,-0.963939 -1.199569,0 -1.831485,0.953229 -0.621206,0.942519 -0.631916,3.116738 v 2.699031 q 0,2.120667 0.631916,3.063186 0.642626,0.931808 1.852906,0.931808 1.199569,0 1.820775,-0.921098 0.621205,-0.921097 0.631916,-2.998923 z"
           style="font-style:normal;font-variant:normal;font-weight:bold;font-stretch:normal;font-family:'Roboto Condensed';-inkscape-font-specification:'Roboto Condensed, Bold';fill:#ffffff;fill-opacity:1;stroke:none;stroke-width:0.54837453"
           id="path1497"
           inkscape:connector-curvature="0" />
        <path
           d="m 37.085533,64.806424 h 3.15958 v 10.69973 q 0,2.709742 -1.44591,3.909311 -1.445909,1.199569 -3.684391,1.199569 -2.270614,0 -3.705813,-1.199569 Q 29.9738,78.215896 29.9738,75.506154 v -10.69973 h 3.15958 v 10.69973 q 0,1.531593 0.503391,2.013563 0.514101,0.48197 1.478041,0.48197 0.97465,0 1.46733,-0.48197 0.503391,-0.48197 0.503391,-2.013563 z"
           style="font-style:normal;font-variant:normal;font-weight:bold;font-stretch:normal;font-family:'Roboto Condensed';-inkscape-font-specification:'Roboto Condensed, Bold';fill:#ffffff;fill-opacity:1;stroke:none;stroke-width:0.54837453"
           id="path1499"
           inkscape:connector-curvature="0" />
        <path
           d="m 53.558197,64.806424 v 15.594402 h -3.14887 L 45.803838,70.172355 v 10.228471 h -3.15958 V 64.806424 h 3.15958 l 4.605489,10.239181 V 64.806424 Z"
           style="font-style:normal;font-variant:normal;font-weight:bold;font-stretch:normal;font-family:'Roboto Condensed';-inkscape-font-specification:'Roboto Condensed, Bold';fill:#ffffff;fill-opacity:1;stroke:none;stroke-width:0.54837453"
           id="path1501"
           inkscape:connector-curvature="0" />
        <path
           d="M 56.096574,80.400826 V 64.806424 h 4.12352 q 2.709741,0 4.359149,1.724381 1.649408,1.724381 1.649408,4.87325 v 2.40985 q 0,3.138159 -1.649408,4.86254 -1.649408,1.724381 -4.391281,1.724381 z m 3.15958,-12.970344 v 10.356996 h 0.931808 q 1.681539,0 2.281324,-0.921098 0.610495,-0.921098 0.610495,-3.052475 v -2.43127 q 0,-2.099247 -0.589074,-3.009634 -0.578364,-0.921098 -2.19564,-0.942519 z"
           style="font-style:normal;font-variant:normal;font-weight:bold;font-stretch:normal;font-family:'Roboto Condensed';-inkscape-font-specification:'Roboto Condensed, Bold';fill:#ffffff;fill-opacity:1;stroke:none;stroke-width:0.54837453"
           id="path1503"
           inkscape:connector-curvature="0" />
        <path
           d="m 67.288976,78.858522 q 0,-0.717599 0.47126,-1.188859 0.481969,-0.48197 1.295963,-0.48197 0.803283,0 1.274542,0.48197 0.48197,0.47126 0.48197,1.188859 0,0.706889 -0.48197,1.188859 -0.471259,0.471259 -1.274542,0.471259 -0.813994,0 -1.295963,-0.471259 -0.47126,-0.48197 -0.47126,-1.188859 z"
           style="font-style:normal;font-variant:normal;font-weight:bold;font-stretch:normal;font-family:'Roboto Condensed';-inkscape-font-specification:'Roboto Condensed, Bold';fill:#ffffff;fill-opacity:1;stroke:none;stroke-width:0.54837453"
           id="path1505"
           inkscape:connector-curvature="0" />
      </g>
      <g
         transform="matrix(0.28339459,0,0,0.28339459,59.30706,262.98073)"
         aria-label="404"
         style="font-style:normal;font-weight:normal;font-size:112.54764557px;line-height:1.25;font-family:sans-serif;letter-spacing:0px;word-spacing:0px;fill:#ffffff;fill-opacity:1;stroke:none;stroke-width:2.81369114"
         id="text1370">
        <path
           d="m -115.13487,26.435565 27.147721,-52.591844 h 15.662148 v 49.789144 h 6.759454 v 12.914403 h -6.759454 V 53.858063 H -87.877239 V 36.547268 h -26.543221 z m 15.167552,-2.8027 h 12.090079 V -3.2400836 l -0.384684,0.7144137 z"
           style="font-style:normal;font-variant:normal;font-weight:bold;font-stretch:normal;font-family:'Roboto Condensed';-inkscape-font-specification:'Roboto Condensed, Bold';fill:#ffffff;fill-opacity:1;stroke:none;stroke-width:2.81369114"
           id="path1508"
           inkscape:connector-curvature="0" />
        <path
           d="m -9.951184,20.77521 q 0,17.970254 -6.484679,26.10358 -6.484679,8.078371 -16.706291,8.078371 -10.166657,0 -16.706291,-7.968461 -6.484679,-8.023417 -6.594589,-25.608986 V 6.816664 q 0,-18.025209 6.484679,-26.048625 6.484679,-8.023416 16.761246,-8.023416 10.111703,0 16.596381,7.858551 6.484679,7.858552 6.649544,25.2243017 z M -25.503422,4.5635129 q 0,-10.5513418 -2.088287,-14.7279149 -2.088286,-4.176572 -5.6054,-4.176572 -3.462159,0 -5.550445,4.066663 -2.088287,4.0666625 -2.143242,14.2333199 V 22.863496 q 0,10.661252 2.088287,14.947734 2.088286,4.231528 5.660355,4.231528 3.517114,0 5.550445,-4.121618 2.033332,-4.176573 2.088287,-14.45314 z"
           style="font-style:normal;font-variant:normal;font-weight:bold;font-stretch:normal;font-family:'Roboto Condensed';-inkscape-font-specification:'Roboto Condensed, Bold';fill:#ffffff;fill-opacity:1;stroke:none;stroke-width:2.81369114"
           id="path1510"
           inkscape:connector-curvature="0" />
        <path
           d="M -1.2683097,26.435565 25.879413,-26.156279 h 15.662148 v 49.789144 h 6.759454 V 36.547268 H 41.541561 V 53.858063 H 25.989323 V 36.547268 H -0.55389597 Z m 15.1675537,-2.8027 H 25.989323 V -3.2400836 l -0.384684,0.7144137 z"
           style="font-style:normal;font-variant:normal;font-weight:bold;font-stretch:normal;font-family:'Roboto Condensed';-inkscape-font-specification:'Roboto Condensed, Bold';fill:#ffffff;fill-opacity:1;stroke:none;stroke-width:2.81369114"
           id="path1512"
           inkscape:connector-curvature="0" />
      </g>
    </g>
  </g>
</svg>
