<?xml version="1.0" encoding="UTF-8" standalone="no"?>
<svg
   xmlns:dc="http://purl.org/dc/elements/1.1/"
   xmlns:cc="http://creativecommons.org/ns#"
   xmlns:rdf="http://www.w3.org/1999/02/22-rdf-syntax-ns#"
   xmlns:svg="http://www.w3.org/2000/svg"
   xmlns="http://www.w3.org/2000/svg"
   xmlns:sodipodi="http://sodipodi.sourceforge.net/DTD/sodipodi-0.dtd"
   xmlns:inkscape="http://www.inkscape.org/namespaces/inkscape"
   id="svg8"
   version="1.1"
   viewBox="0 0 33.866666 33.866668"
   height="128"
   width="128"
   sodipodi:docname="logo.svg"
   inkscape:version="0.92.4 (5da689c313, 2019-01-14)">
  <sodipodi:namedview
     pagecolor="#ffffff"
     bordercolor="#666666"
     borderopacity="1"
     objecttolerance="10"
     gridtolerance="10"
     guidetolerance="10"
     inkscape:pageopacity="0"
     inkscape:pageshadow="2"
     inkscape:window-width="1366"
     inkscape:window-height="709"
     id="namedview9"
     showgrid="false"
     inkscape:zoom="1.84375"
     inkscape:cx="114.98305"
     inkscape:cy="64"
     inkscape:window-x="0"
     inkscape:window-y="31"
     inkscape:window-maximized="1"
     inkscape:current-layer="svg8" />
  <defs
     id="defs2" />
  <metadata
     id="metadata5">
    <rdf:RDF>
      <cc:Work
         rdf:about="">
        <dc:format>image/svg+xml</dc:format>
        <dc:type
           rdf:resource="http://purl.org/dc/dcmitype/StillImage" />
        <dc:title />
      </cc:Work>
    </rdf:RDF>
  </metadata>
  <ellipse
     style="opacity:1;vector-effect:none;fill:#999999;fill-opacity:1;stroke:none;stroke-width:0.10636017;stroke-linecap:butt;stroke-linejoin:miter;stroke-miterlimit:4;stroke-dasharray:none;stroke-dashoffset:0;stroke-opacity:1"
     id="path871"
     cx="17.097298"
     cy="19.503693"
     rx="11.393947"
     ry="12.081371" />
  <path
     id="path815"
     style="opacity:1;vector-effect:none;fill:#808080;fill-opacity:1;stroke:none;stroke-width:0.10636017;stroke-linecap:butt;stroke-linejoin:miter;stroke-miterlimit:4;stroke-dasharray:none;stroke-dashoffset:0;stroke-opacity:1"
     d="M -8.5444e-8,6.8423908 V 17.205202 c 0,0.658903 0.025281285444,1.297269 0.075811695444,1.914989 0.05053845,0.61772 0.12635417,1.214831 0.22743509,1.791369 0.10107691,0.576541 0.22743509,1.132389 0.37905447,1.667749 0.15161937,0.535359 0.32852003,1.050157 0.53067783,1.544334 0.2021619,0.494177 0.429601,0.967717 0.6823013,1.420711 0.2527043,0.452999 0.5306859,0.885485 0.8339246,1.297301 0.3032428,0.411812 0.6317669,0.803043 0.9855481,1.173676 0.3537812,0.370634 0.7328477,0.720606 1.1371674,1.050058 0.4070005,0.326773 0.8258378,0.633235 1.2566004,0.91916 0.4307625,0.285929 0.8735186,0.551293 1.3280471,0.796373 0.4545286,0.24508 0.9207894,0.469764 1.3990799,0.673996 0.4782906,0.204235 0.9684782,0.38803 1.4705352,0.551417 0.502052,0.163387 1.015953,0.306293 1.541772,0.428831 0.525819,0.122538 1.063639,0.224765 1.613219,0.306458 0.549585,0.08169 1.110914,0.143027 1.68426,0.183871 0.573347,0.04085 1.158594,0.06108 1.755707,0.06108 0.567655,0 1.126364,-0.02022 1.675948,-0.06108 0.549581,-0.04084 1.090021,-0.102178 1.621531,-0.183871 0.531506,-0.08169 1.054093,-0.18392 1.567528,-0.306458 0.513435,-0.122538 1.017747,-0.265444 1.513107,-0.428831 0.495361,-0.163387 0.981822,-0.347182 1.459108,-0.551417 0.47729,-0.204232 0.94548,-0.428916 1.404691,-0.673996 0.459211,-0.24508 0.909338,-0.510444 1.350479,-0.796373 0.44114,-0.285925 0.873205,-0.592387 1.29627,-0.91916 0.423066,-0.329452 0.819745,-0.679424 1.189925,-1.050058 0.370184,-0.370633 0.713945,-0.761864 1.031243,-1.173676 0.317298,-0.411816 0.608142,-0.844302 0.872554,-1.297301 0.264417,-0.452994 0.502342,-0.926534 0.713873,-1.420711 0.211535,-0.494177 0.396747,-1.008975 0.555396,-1.544334 0.158649,-0.53536 0.290739,-1.091208 0.396502,-1.667749 0.105768,-0.576538 0.185145,-1.173649 0.238026,-1.791369 0.05289,-0.61772 0.07934,-1.256086 0.07934,-1.914989 V 6.411067 A 22.256176,22.263156 0 0 0 27.697499,1.4786682 V 17.205202 c 0,0.458017 -0.01551,0.901072 -0.04632,1.329292 -0.03079,0.42822 -0.07695,0.841536 -0.138537,1.239956 -0.06159,0.398423 -0.138588,0.781991 -0.230968,1.150615 -0.09238,0.368623 -0.20022,0.722242 -0.323391,1.061069 -0.123171,0.338823 -0.261647,0.662907 -0.415614,0.971934 -0.153963,0.309027 -0.323283,0.603158 -0.508037,0.882388 -0.184755,0.279231 -0.384919,0.543409 -0.600465,0.792839 -0.21555,0.249435 -0.446554,0.484074 -0.692896,0.703708 -0.246342,0.216956 -0.5027,0.420376 -0.769122,0.610214 -0.266426,0.189838 -0.542848,0.36605 -0.829354,0.528769 -0.286507,0.162716 -0.583001,0.31193 -0.889588,0.447531 -0.306587,0.135597 -0.623359,0.257604 -0.95003,0.366082 -0.326671,0.108479 -0.663302,0.203283 -1.010057,0.284643 -0.346752,0.08136 -0.70366,0.149166 -1.070496,0.203403 -0.366836,0.05424 -0.743607,0.09505 -1.130523,0.122168 -0.386917,0.02714 -0.783965,0.04072 -1.190962,0.04072 -0.401647,0 -0.793651,-0.01359 -1.176219,-0.04072 -0.382567,-0.02714 -0.755613,-0.06793 -1.1191,-0.122168 -0.363486,-0.05424 -0.71736,-0.122044 -1.061772,-0.203403 C 13.19964,27.492882 12.864725,27.398078 12.539396,27.289599 12.214063,27.181121 11.898317,27.059114 11.592063,26.923517 11.28581,26.787916 10.98903,26.638702 10.701853,26.475986 10.414679,26.313267 10.137063,26.137055 9.8689691,25.947217 9.6008709,25.757379 9.342218,25.553959 9.0931994,25.337003 8.8468576,25.117369 8.6160624,24.88273 8.4005123,24.633295 8.1849663,24.383865 7.984802,24.119687 7.8000477,23.840456 7.6152893,23.561226 7.445764,23.267095 7.2917974,22.958068 7.1378348,22.649041 6.9993585,22.324957 6.8761876,21.986134 6.7530167,21.647307 6.6451713,21.293688 6.5527961,20.925065 6.460417,20.556441 6.3834155,20.172873 6.3218321,19.77445 6.2602447,19.37603 6.2140872,18.962714 6.1832915,18.534494 6.1525038,18.106274 6.1371823,17.663219 6.1371823,17.205202 V 1.6754235 A 22.256176,22.263156 0 0 0 -8.5444e-8,6.8423908 Z M 17.104063,0.88009068 A 22.256176,22.263156 0 0 0 11.356947,1.6450906 V 17.733136 c 0,1.950498 0.524489,3.393297 1.573549,4.328624 1.060468,0.923921 2.445902,1.386018 4.156328,1.386018 1.733235,0 3.124505,-0.462097 4.17357,-1.386018 1.049061,-0.935327 1.573549,-2.378126 1.573549,-4.328624 V 1.6579716 a 22.256176,22.263156 0 0 0 -5.72988,-0.77788092 z"
     inkscape:connector-curvature="0" />
</svg>
