<?xml version="1.0" encoding="UTF-8" standalone="no"?>
<svg
   xmlns:dc="http://purl.org/dc/elements/1.1/"
   xmlns:cc="http://creativecommons.org/ns#"
   xmlns:rdf="http://www.w3.org/1999/02/22-rdf-syntax-ns#"
   xmlns:svg="http://www.w3.org/2000/svg"
   xmlns="http://www.w3.org/2000/svg"
   id="svg8"
   version="1.1"
   viewBox="0 0 33.866666 33.866668"
   height="128"
   width="128">
  <defs
     id="defs2" />
  <metadata
     id="metadata5">
    <rdf:RDF>
      <cc:Work
         rdf:about="">
        <dc:format>image/svg+xml</dc:format>
        <dc:type
           rdf:resource="http://purl.org/dc/dcmitype/StillImage" />
        <dc:title></dc:title>
      </cc:Work>
    </rdf:RDF>
  </metadata>
  <g
     transform="translate(0,-263.13333)"
     id="layer1">
    <g
       transform="matrix(0.4019282,0,0,0.40205425,92.145424,225.00147)"
       id="g893">
      <ellipse
         style="opacity:1;vector-effect:none;fill:#4d4d4d;fill-opacity:1;stroke:none;stroke-width:0.26458332;stroke-linecap:butt;stroke-linejoin:miter;stroke-miterlimit:4;stroke-dasharray:none;stroke-dashoffset:0;stroke-opacity:1"
         id="path871"
         cx="-186.72023"
         cy="143.35268"
         rx="28.348215"
         ry="30.049109" />
      <path
         id="path815"
         style="opacity:1;vector-effect:none;fill:#333333;fill-opacity:1;stroke:none;stroke-width:0.26458332;stroke-linecap:butt;stroke-linejoin:miter;stroke-miterlimit:4;stroke-dasharray:none;stroke-dashoffset:0;stroke-opacity:1"
         d="m -229.25842,111.86115 v 25.77466 c 0,1.63884 0.0629,3.2266 0.18862,4.76301 0.12574,1.53641 0.31437,3.02156 0.56586,4.45554 0.25148,1.43399 0.56586,2.81651 0.94309,4.14807 0.37723,1.33156 0.81736,2.61198 1.32033,3.84111 0.50298,1.22913 1.06885,2.40693 1.69757,3.53363 0.62873,1.12671 1.32035,2.2024 2.07481,3.22668 0.75447,1.02427 1.57184,1.99735 2.45205,2.9192 0.88021,0.92185 1.82333,1.79231 2.82928,2.61173 1.01262,0.81276 2.05469,1.575 3.12643,2.28616 1.07174,0.71117 2.17332,1.37119 3.30419,1.98076 1.13087,0.60957 2.29093,1.16841 3.48092,1.67638 1.18999,0.50798 2.40958,0.96512 3.6587,1.3715 1.24911,0.40638 2.5277,0.76182 3.83594,1.0666 1.30824,0.30478 2.64634,0.55904 4.0137,0.76223 1.36737,0.20319 2.76396,0.35574 4.19045,0.45733 1.42649,0.1016 2.88259,0.15193 4.36821,0.15193 1.41233,0 2.8024,-0.0503 4.16977,-0.15193 1.36736,-0.10159 2.71198,-0.25414 4.03438,-0.45733 1.32239,-0.20319 2.62259,-0.45745 3.90002,-0.76223 1.27743,-0.30478 2.53216,-0.66022 3.76462,-1.0666 1.23246,-0.40638 2.44278,-0.86352 3.63027,-1.3715 1.1875,-0.50797 2.35236,-1.06681 3.49488,-1.67638 1.14252,-0.60957 2.26244,-1.26959 3.36,-1.98076 1.09756,-0.71116 2.17254,-1.4734 3.22513,-2.28616 1.05259,-0.81942 2.03953,-1.68988 2.96054,-2.61173 0.92102,-0.92185 1.7763,-1.89493 2.56574,-2.9192 0.78944,-1.02428 1.51306,-2.09997 2.17092,-3.22668 0.65787,-1.1267 1.24983,-2.3045 1.77612,-3.53363 0.5263,-1.22913 0.98711,-2.50955 1.38183,-3.84111 0.39472,-1.33156 0.72336,-2.71408 0.9865,-4.14807 0.26315,-1.43398 0.46064,-2.91913 0.59221,-4.45554 0.13158,-1.53641 0.19741,-3.12417 0.19741,-4.76301 v -26.84746 a 55.373513,55.373513 0 0 0 -15.34893,-12.267993 v 39.115453 c 0,1.13919 -0.0386,2.24117 -0.11524,3.30625 -0.0766,1.06508 -0.19146,2.09309 -0.34468,3.08405 -0.15323,0.99097 -0.34481,1.94499 -0.57465,2.86184 -0.22983,0.91685 -0.49815,1.79638 -0.8046,2.63912 -0.30645,0.84273 -0.65098,1.6488 -1.03405,2.41742 -0.38306,0.76862 -0.80433,1.50019 -1.264,2.1947 -0.45967,0.69451 -0.95768,1.35158 -1.49396,1.97197 -0.53629,0.6204 -1.11103,1.204 -1.72393,1.75028 -0.6129,0.53962 -1.25072,1.04557 -1.91358,1.51774 -0.66287,0.47217 -1.35061,0.91045 -2.06344,1.31517 -0.71283,0.40471 -1.45051,0.77584 -2.2133,1.11311 -0.76279,0.33726 -1.55092,0.64072 -2.36368,0.91053 -0.81276,0.26981 -1.6503,0.50561 -2.51303,0.70797 -0.86272,0.20236 -1.75071,0.37101 -2.6634,0.50591 -0.91269,0.13491 -1.8501,0.23641 -2.81275,0.30386 -0.96265,0.0675 -1.95051,0.10129 -2.96312,0.10129 -0.9993,0 -1.97461,-0.0338 -2.92644,-0.10129 -0.95183,-0.0675 -1.87997,-0.16895 -2.78433,-0.30386 -0.90436,-0.1349 -1.7848,-0.30355 -2.6417,-0.50591 -0.85689,-0.20236 -1.69016,-0.43816 -2.49958,-0.70797 -0.80943,-0.26981 -1.59501,-0.57327 -2.35697,-0.91053 -0.76196,-0.33727 -1.50035,-0.7084 -2.21485,-1.11311 -0.71449,-0.40472 -1.4052,-0.843 -2.07222,-1.31517 -0.66703,-0.47217 -1.31056,-0.97812 -1.93012,-1.51774 -0.6129,-0.54628 -1.18712,-1.12988 -1.72341,-1.75028 -0.53628,-0.62039 -1.03429,-1.27746 -1.49396,-1.97197 -0.45968,-0.69451 -0.88146,-1.42608 -1.26453,-2.1947 -0.38306,-0.76862 -0.72759,-1.57469 -1.03404,-2.41742 -0.30645,-0.84274 -0.57477,-1.72227 -0.8046,-2.63912 -0.22984,-0.91685 -0.42142,-1.87087 -0.57464,-2.86184 -0.15323,-0.99096 -0.26807,-2.01897 -0.34469,-3.08405 -0.0766,-1.06508 -0.11472,-2.16706 -0.11472,-3.30625 V 99.009732 a 55.373513,55.373513 0 0 0 -15.26935,12.851418 z m 42.55502,-14.829591 a 55.373513,55.373513 0 0 0 -14.29886,1.902728 V 138.9489 c 0,4.85133 1.30493,8.4399 3.915,10.76627 2.63845,2.298 6.08542,3.44734 10.34097,3.44734 4.3123,0 7.77379,-1.14934 10.38387,-3.44734 2.61007,-2.32637 3.915,-5.91494 3.915,-10.76627 V 98.966325 a 55.373513,55.373513 0 0 0 -14.25598,-1.934766 z" />
    </g>
  </g>
</svg>
